# xmcd CD database file
#
# Track frame offsets:
#	150
#	17001
#	35043
#	50631
#	66306
#	84331
#	101364
#	113831
#	134797
#	146586
#
# Disc length: 2150 seconds
#
# Revision: 0
# Processed by: cddbd v1.5.2PL0 Copyright (c) Steve Scherf et al.
# Submitted via: CDex 1.70beta2
#
DISCID=8e08640a
DTITLE=Yesterday's Wine - Can - ON - Red, White or Rose?
DYEAR=1900
DGENRE=Country
TTITLE0=Paradise
TTITLE1=Queen of the Sliver Dollar
TTITLE2=Reasons To Quit
TTITLE3=The Request
TTITLE4=Wabash Cannonball
TTITLE5=Yesterday's Wine
TTITLE6=Country Time
TTITLE7=Amanda For marie
TTITLE8=If Heaven Not A Lot Like Dixie
TTITLE9=Will the Curcle Be Unbroken
EXTD=
EXTT0=
EXTT1=
EXTT2=
EXTT3=
EXTT4=
EXTT5=
EXTT6=
EXTT7=
EXTT8=
EXTT9=
PLAYORDER=
